<?xml version="1.0" encoding="UTF-8"?>
<svg width="32px" height="32px" viewBox="0 0 32 32" version="1.1" xmlns="http://www.w3.org/2000/svg">
    <!-- Background circle with gradient -->
    <defs>
        <linearGradient id="bgGradient" x1="0%" y1="0%" x2="100%" y2="100%">
            <stop offset="0%" style="stop-color:#ff6b35;stop-opacity:1" />
            <stop offset="100%" style="stop-color:#f7931e;stop-opacity:1" />
        </linearGradient>
    </defs>
    
    <!-- Main background -->
    <circle cx="16" cy="16" r="15" fill="url(#bgGradient)" stroke="#ffffff" stroke-width="1"/>
    
    <!-- Chef's hat -->
    <ellipse cx="16" cy="14" rx="8" ry="4" fill="#ffffff"/>
    <path d="M8 14 Q8 10 12 10 Q14 8 16 8 Q18 8 20 10 Q24 10 24 14 L24 18 Q24 20 22 20 L10 20 Q8 20 8 18 Z" fill="#ffffff"/>
    
    <!-- Hat band -->
    <rect x="9" y="18" width="14" height="2" fill="#ffffff" opacity="0.8"/>
    
    <!-- Spoon -->
    <ellipse cx="12" cy="24" rx="1.5" ry="2.5" fill="#ffffff"/>
    <rect x="11.5" y="21" width="1" height="6" fill="#ffffff"/>
    
    <!-- Fork -->
    <rect x="19" y="21" width="0.5" height="6" fill="#ffffff"/>
    <rect x="20" y="21" width="0.5" height="6" fill="#ffffff"/>
    <rect x="21" y="21" width="0.5" height="6" fill="#ffffff"/>
    <rect x="19" y="21" width="2.5" height="1" fill="#ffffff"/>
</svg>